<?xml version="1.0" encoding="UTF-8"?>
<svg width="128px" height="128px" viewBox="0 0 128 128" version="1.1" xmlns="http://www.w3.org/2000/svg">
  <g fill="none" fill-rule="evenodd">
    <rect fill="#35495E" x="0" y="0" width="128" height="128" rx="8"></rect>
    <path d="M65.5791213,41.8617981 L92.6789234,84.0793031 C93.2489355,84.9493322 92.9789293,86.0993673 92.1089002,86.6693794 C91.7988921,86.8793854 91.4388818,86.9993889 91.0688702,86.9993889 L36.8692661,86.9993889 C35.7647205,86.9993889 34.8692661,86.1039345 34.8692661,84.9993889 C34.8692661,84.6293773 34.9892695,84.269367 35.1992756,83.9593589 L62.2990777,41.7418539 C62.8690898,40.8718248 64.0191249,40.6018186 64.889154,41.1718307 C65.1390024,41.3366175 65.3447543,41.5657278 65.4836068,41.8345335 L65.5791213,41.8617981 Z" fill="#41B883"></path>
    <path d="M54,29 L74,29 C75.1045695,29 76,29.8954305 76,31 C76,31.3700116 75.8799966,31.7300219 75.6699905,32.04003 L64.7653776,48 L75.6699905,63.95997 C76.2400026,64.8299991 75.9699964,65.9800342 75.0999673,66.5500463 C74.7899592,66.7600524 74.4299489,66.8800558 74.0599373,66.8800558 L54,66.8800558 C52.8954305,66.8800558 52,65.9846013 52,64.8800318 C52,64.5100202 52.1200034,64.1500099 52.3300095,63.8400018 L63.2346224,48 L52.3300095,32.04003 C51.7599974,31.1700009 52.0300036,30.0199658 52.9000327,29.4499537 C53.2100408,29.2399476 53.5700511,29.1199442 53.9400627,29.1199442 L54,29 Z" fill="#FFFFFF"></path>
  </g>
</svg> 